# xmcd CD database file
#
# Track frame offsets:
#	150
#	20890
#	40362
#	61250
#	79851
#	98369
#	118188
#	138621
#	158401
#
# Disc length: 2424 seconds
#
# Revision: 0
# Processed by: cddbd v1.5PL3 Copyright (c) Steve Scherf et al.
# Submitted via: CDex 1.50beta8
#
DISCID=70097609
DTITLE=堀江由衣・田村ゆかり - エンジェリック・コンサート ソングアルバム
DYEAR=2001
DGENRE=Game
TTITLE0=トラベルハーモニー
TTITLE1=ひと言の魔法
TTITLE2=眠る前のテレパシー
TTITLE3=毛布のようなあたたかさ
TTITLE4=心の中の冒険
TTITLE5=ロマンス寸前
TTITLE6=Premonition
TTITLE7=My sweet darling
TTITLE8=Myself・Yourself
EXTD=YEAR: 2001
EXTT0=
EXTT1=
EXTT2=
EXTT3=
EXTT4=
EXTT5=
EXTT6=
EXTT7=
EXTT8=
PLAYORDER=
